<?xml version="1.0" encoding="iso-8859-1"?>
<!-- Generator: Adobe Illustrator 19.0.0, SVG Export Plug-In . SVG Version: 6.00 Build 0)  -->
<svg xmlns="http://www.w3.org/2000/svg" xmlns:xlink="http://www.w3.org/1999/xlink" version="1.1" id="Capa_1" x="0px" y="0px" viewBox="0 0 480 480" style="enable-background:new 0 0 480 480;" xml:space="preserve" width="512px" height="512px">
<g>
	<g>
		<path d="M300,208h-24c-4.418,0-8,3.582-8,8s3.582,8,8,8h24c13.255,0,24,10.745,24,24v48c0,4.418,3.582,8,8,8s8-3.582,8-8v-48    C339.974,225.92,322.08,208.026,300,208z" fill="#FFFFFF"/>
	</g>
</g>
<g>
	<g>
		<path d="M308,176.44V16c0-8.837-7.163-16-16-16h-48c-8.837,0-16,7.163-16,16v160.44c-36.421,4.12-63.956,34.907-64,71.56v208    c0,13.255,10.745,24,24,24h160c13.255,0,24-10.745,24-24V248C371.956,211.347,344.421,180.56,308,176.44z M244,16h48v48h-48V16z     M180,336h144v80H180V336z M356,456c0,4.418-3.582,8-8,8H188c-4.418,0-8-3.582-8-8v-24h160V320H180v-72    c0.035-30.913,25.087-55.965,56-56c4.418,0,8-3.582,8-8V80h48v104c0,4.418,3.582,8,8,8c30.913,0.035,55.965,25.087,56,56V456z" fill="#FFFFFF"/>
	</g>
</g>
<g>
	<g>
		<path d="M244.16,208h-0.08c-4.44,0.022-8.022,3.64-8,8.08c0.022,4.44,3.64,8.022,8.08,8s8.022-3.64,8-8.08    C252.138,211.591,248.569,208.022,244.16,208z" fill="#FFFFFF"/>
	</g>
</g>
<g>
	<g>
		<path d="M180,144c-13.255,0-24-10.745-24-24c0-4.418-3.582-8-8-8s-8,3.582-8,8c0,13.255-10.745,24-24,24c-4.418,0-8,3.582-8,8    s3.582,8,8,8c13.255,0,24,10.745,24,24c0,4.418,3.582,8,8,8s8-3.582,8-8c0-13.255,10.745-24,24-24c4.418,0,8-3.582,8-8    S184.418,144,180,144z M148,160c-2.278-3.029-4.971-5.722-8-8c3.029-2.278,5.722-4.971,8-8c2.278,3.029,4.971,5.722,8,8    C152.971,154.278,150.278,156.971,148,160z" fill="#FFFFFF"/>
	</g>
</g>
<g>
</g>
<g>
</g>
<g>
</g>
<g>
</g>
<g>
</g>
<g>
</g>
<g>
</g>
<g>
</g>
<g>
</g>
<g>
</g>
<g>
</g>
<g>
</g>
<g>
</g>
<g>
</g>
<g>
</g>
</svg>
