<svg xmlns="http://www.w3.org/2000/svg" viewBox="0 0 480 480" width="512" height="512"><path d="M300 208h-24a8 8 0 0 0 0 16h24c13.255 0 24 10.745 24 24v48a8 8 0 0 0 16 0v-48c-.026-22.08-17.92-39.974-40-40z" fill="#FFF"/><path d="M308 176.44V16c0-8.837-7.163-16-16-16h-48c-8.837 0-16 7.163-16 16v160.44c-36.421 4.12-63.956 34.907-64 71.56v208c0 13.255 10.745 24 24 24h160c13.255 0 24-10.745 24-24V248c-.044-36.653-27.579-67.44-64-71.56zM244 16h48v48h-48V16zm-64 320h144v80H180v-80zm176 120a8 8 0 0 1-8 8H188a8 8 0 0 1-8-8v-24h160V320H180v-72c.035-30.913 25.087-55.965 56-56a8 8 0 0 0 8-8V80h48v104a8 8 0 0 0 8 8c30.913.035 55.965 25.087 56 56v208z" fill="#FFF"/><path d="M244.16 208h-.08a8.04 8.04 0 1 0 .08 0zM180 144c-13.255 0-24-10.745-24-24a8 8 0 0 0-16 0c0 13.255-10.745 24-24 24a8 8 0 0 0 0 16c13.255 0 24 10.745 24 24a8 8 0 0 0 16 0c0-13.255 10.745-24 24-24a8 8 0 0 0 0-16zm-32 16a40.372 40.372 0 0 0-8-8 40.372 40.372 0 0 0 8-8 40.372 40.372 0 0 0 8 8 40.372 40.372 0 0 0-8 8z" fill="#FFF"/></svg>